<svg width="280" height="139" viewBox="0 0 280 139" fill="none" xmlns="http://www.w3.org/2000/svg">
<path d="M148.769 62.5L145.308 54.8846H134.462L130.878 62.5H148.769Z" fill="#0097FF"/>
<path d="M139.769 23.5L125.25 54.6538L125.142 54.8846H134.462L139.769 42.8846L145.308 54.8846H154.538L139.769 23.5Z" fill="#0097FF"/>
<path d="M125.692 74.5L130.878 62.5H121.769L116 74.5H125.692Z" fill="#0097FF"/>
<path d="M154.308 74.5H164L158.122 62.5H148.769L154.308 74.5Z" fill="#0097FF"/>
<path d="M148.769 62.5L154.308 74.5H164L158.122 62.5H148.769ZM148.769 62.5L145.308 54.8846M148.769 62.5H130.878M145.308 54.8846H134.462M145.308 54.8846H154.538L139.769 23.5L125.25 54.6538L125.142 54.8846H134.462M145.308 54.8846L139.769 42.8846L134.462 54.8846M134.462 54.8846L130.878 62.5M130.878 62.5L125.692 74.5H116L121.769 62.5H130.878Z" stroke="#0097FF"/>
<path d="M50.5561 106.748H44.2681L43.2601 109.724H38.9641L45.0601 92.876H49.8121L55.9081 109.724H51.5641L50.5561 106.748ZM49.5001 103.58L47.4121 97.412L45.3481 103.58H49.5001Z" fill="#2D3748"/>
<path d="M70.9874 96.332V109.724H66.8834V107.9C66.4674 108.492 65.8994 108.972 65.1794 109.34C64.4754 109.692 63.6914 109.868 62.8274 109.868C61.8034 109.868 60.8994 109.644 60.1154 109.196C59.3314 108.732 58.7234 108.068 58.2914 107.204C57.8594 106.34 57.6434 105.324 57.6434 104.156V96.332H61.7234V103.604C61.7234 104.5 61.9554 105.196 62.4194 105.692C62.8834 106.188 63.5074 106.436 64.2914 106.436C65.0914 106.436 65.7234 106.188 66.1874 105.692C66.6514 105.196 66.8834 104.5 66.8834 103.604V96.332H70.9874Z" fill="#2D3748"/>
<path d="M73.1193 103.004C73.1193 101.628 73.3753 100.42 73.8873 99.38C74.4153 98.34 75.1273 97.54 76.0233 96.98C76.9193 96.42 77.9193 96.14 79.0233 96.14C79.9033 96.14 80.7033 96.324 81.4233 96.692C82.1593 97.06 82.7353 97.556 83.1513 98.18V91.964H87.2553V109.724H83.1513V107.804C82.7673 108.444 82.2153 108.956 81.4953 109.34C80.7913 109.724 79.9673 109.916 79.0233 109.916C77.9193 109.916 76.9193 109.636 76.0233 109.076C75.1273 108.5 74.4153 107.692 73.8873 106.652C73.3753 105.596 73.1193 104.38 73.1193 103.004ZM83.1513 103.028C83.1513 102.004 82.8633 101.196 82.2873 100.604C81.7273 100.012 81.0393 99.716 80.2233 99.716C79.4073 99.716 78.7113 100.012 78.1353 100.604C77.5753 101.18 77.2953 101.98 77.2953 103.004C77.2953 104.028 77.5753 104.844 78.1353 105.452C78.7113 106.044 79.4073 106.34 80.2233 106.34C81.0393 106.34 81.7273 106.044 82.2873 105.452C82.8633 104.86 83.1513 104.052 83.1513 103.028Z" fill="#2D3748"/>
<path d="M92.2884 94.94C91.5684 94.94 90.9764 94.732 90.5124 94.316C90.0644 93.884 89.8404 93.356 89.8404 92.732C89.8404 92.092 90.0644 91.564 90.5124 91.148C90.9764 90.716 91.5684 90.5 92.2884 90.5C92.9924 90.5 93.5684 90.716 94.0164 91.148C94.4804 91.564 94.7124 92.092 94.7124 92.732C94.7124 93.356 94.4804 93.884 94.0164 94.316C93.5684 94.732 92.9924 94.94 92.2884 94.94ZM94.3284 96.332V109.724H90.2244V96.332H94.3284Z" fill="#2D3748"/>
<path d="M109.926 102.812C109.926 103.196 109.902 103.596 109.854 104.012H100.566C100.63 104.844 100.894 105.484 101.358 105.932C101.838 106.364 102.422 106.58 103.11 106.58C104.134 106.58 104.846 106.148 105.246 105.284H109.614C109.39 106.164 108.982 106.956 108.39 107.66C107.814 108.364 107.086 108.916 106.206 109.316C105.326 109.716 104.342 109.916 103.254 109.916C101.942 109.916 100.774 109.636 99.7505 109.076C98.7265 108.516 97.9265 107.716 97.3505 106.676C96.7745 105.636 96.4865 104.42 96.4865 103.028C96.4865 101.636 96.7665 100.42 97.3265 99.38C97.9025 98.34 98.7025 97.54 99.7265 96.98C100.75 96.42 101.926 96.14 103.254 96.14C104.55 96.14 105.702 96.412 106.71 96.956C107.718 97.5 108.502 98.276 109.062 99.284C109.638 100.292 109.926 101.468 109.926 102.812ZM105.726 101.732C105.726 101.028 105.486 100.468 105.006 100.052C104.526 99.636 103.926 99.428 103.206 99.428C102.518 99.428 101.934 99.628 101.454 100.028C100.99 100.428 100.702 100.996 100.59 101.732H105.726Z" fill="#2D3748"/>
<path d="M120.252 96.188C121.82 96.188 123.068 96.7 123.996 97.724C124.94 98.732 125.412 100.124 125.412 101.9V109.724H121.332V102.452C121.332 101.556 121.1 100.86 120.636 100.364C120.172 99.868 119.548 99.62 118.764 99.62C117.98 99.62 117.356 99.868 116.892 100.364C116.428 100.86 116.196 101.556 116.196 102.452V109.724H112.092V96.332H116.196V98.108C116.612 97.516 117.172 97.052 117.876 96.716C118.58 96.364 119.372 96.188 120.252 96.188Z" fill="#2D3748"/>
<path d="M127.447 103.028C127.447 101.636 127.727 100.42 128.287 99.38C128.863 98.34 129.655 97.54 130.663 96.98C131.687 96.42 132.855 96.14 134.167 96.14C135.847 96.14 137.247 96.58 138.367 97.46C139.503 98.34 140.247 99.58 140.599 101.18H136.231C135.863 100.156 135.151 99.644 134.095 99.644C133.343 99.644 132.743 99.94 132.295 100.532C131.847 101.108 131.623 101.94 131.623 103.028C131.623 104.116 131.847 104.956 132.295 105.548C132.743 106.124 133.343 106.412 134.095 106.412C135.151 106.412 135.863 105.9 136.231 104.876H140.599C140.247 106.444 139.503 107.676 138.367 108.572C137.231 109.468 135.831 109.916 134.167 109.916C132.855 109.916 131.687 109.636 130.663 109.076C129.655 108.516 128.863 107.716 128.287 106.676C127.727 105.636 127.447 104.42 127.447 103.028Z" fill="#2D3748"/>
<path d="M155.419 102.812C155.419 103.196 155.395 103.596 155.347 104.012H146.059C146.123 104.844 146.387 105.484 146.851 105.932C147.331 106.364 147.915 106.58 148.603 106.58C149.627 106.58 150.339 106.148 150.739 105.284H155.107C154.883 106.164 154.475 106.956 153.883 107.66C153.307 108.364 152.579 108.916 151.699 109.316C150.819 109.716 149.835 109.916 148.747 109.916C147.435 109.916 146.267 109.636 145.243 109.076C144.219 108.516 143.419 107.716 142.843 106.676C142.267 105.636 141.979 104.42 141.979 103.028C141.979 101.636 142.259 100.42 142.819 99.38C143.395 98.34 144.195 97.54 145.219 96.98C146.243 96.42 147.419 96.14 148.747 96.14C150.043 96.14 151.195 96.412 152.203 96.956C153.211 97.5 153.995 98.276 154.555 99.284C155.131 100.292 155.419 101.468 155.419 102.812ZM151.219 101.732C151.219 101.028 150.979 100.468 150.499 100.052C150.019 99.636 149.419 99.428 148.699 99.428C148.011 99.428 147.427 99.628 146.947 100.028C146.483 100.428 146.195 100.996 146.083 101.732H151.219Z" fill="#2D3748"/>
<path d="M172.87 101.084C173.846 101.292 174.63 101.78 175.222 102.548C175.814 103.3 176.11 104.164 176.11 105.14C176.11 106.548 175.614 107.668 174.622 108.5C173.646 109.316 172.278 109.724 170.518 109.724H162.67V92.876H170.254C171.966 92.876 173.302 93.268 174.262 94.052C175.238 94.836 175.726 95.9 175.726 97.244C175.726 98.236 175.462 99.06 174.934 99.716C174.422 100.372 173.734 100.828 172.87 101.084ZM166.774 99.692H169.462C170.134 99.692 170.646 99.548 170.998 99.26C171.366 98.956 171.55 98.516 171.55 97.94C171.55 97.364 171.366 96.924 170.998 96.62C170.646 96.316 170.134 96.164 169.462 96.164H166.774V99.692ZM169.798 106.412C170.486 106.412 171.014 106.26 171.382 105.956C171.766 105.636 171.958 105.18 171.958 104.588C171.958 103.996 171.758 103.532 171.358 103.196C170.974 102.86 170.438 102.692 169.75 102.692H166.774V106.412H169.798Z" fill="#2D3748"/>
<path d="M182.594 98.564C183.074 97.828 183.674 97.252 184.394 96.836C185.114 96.404 185.914 96.188 186.794 96.188V100.532H185.666C184.642 100.532 183.874 100.756 183.362 101.204C182.85 101.636 182.594 102.404 182.594 103.508V109.724H178.49V96.332H182.594V98.564Z" fill="#2D3748"/>
<path d="M190.82 94.94C190.1 94.94 189.508 94.732 189.044 94.316C188.596 93.884 188.372 93.356 188.372 92.732C188.372 92.092 188.596 91.564 189.044 91.148C189.508 90.716 190.1 90.5 190.82 90.5C191.524 90.5 192.1 90.716 192.548 91.148C193.012 91.564 193.244 92.092 193.244 92.732C193.244 93.356 193.012 93.884 192.548 94.316C192.1 94.732 191.524 94.94 190.82 94.94ZM192.86 96.332V109.724H188.756V96.332H192.86Z" fill="#2D3748"/>
<path d="M195.018 103.004C195.018 101.628 195.274 100.42 195.786 99.38C196.314 98.34 197.026 97.54 197.922 96.98C198.818 96.42 199.818 96.14 200.922 96.14C201.802 96.14 202.602 96.324 203.322 96.692C204.058 97.06 204.634 97.556 205.05 98.18V91.964H209.154V109.724H205.05V107.804C204.666 108.444 204.114 108.956 203.394 109.34C202.69 109.724 201.866 109.916 200.922 109.916C199.818 109.916 198.818 109.636 197.922 109.076C197.026 108.5 196.314 107.692 195.786 106.652C195.274 105.596 195.018 104.38 195.018 103.004ZM205.05 103.028C205.05 102.004 204.762 101.196 204.186 100.604C203.626 100.012 202.938 99.716 202.122 99.716C201.306 99.716 200.61 100.012 200.034 100.604C199.474 101.18 199.194 101.98 199.194 103.004C199.194 104.028 199.474 104.844 200.034 105.452C200.61 106.044 201.306 106.34 202.122 106.34C202.938 106.34 203.626 106.044 204.186 105.452C204.762 104.86 205.05 104.052 205.05 103.028Z" fill="#2D3748"/>
<path d="M217.211 96.14C218.155 96.14 218.979 96.332 219.683 96.716C220.403 97.1 220.955 97.604 221.339 98.228V96.332H225.443V109.7C225.443 110.932 225.195 112.044 224.699 113.036C224.219 114.044 223.475 114.844 222.467 115.436C221.475 116.028 220.235 116.324 218.747 116.324C216.763 116.324 215.155 115.852 213.923 114.908C212.691 113.98 211.987 112.716 211.811 111.116H215.867C215.995 111.628 216.299 112.028 216.779 112.316C217.259 112.62 217.851 112.772 218.555 112.772C219.403 112.772 220.075 112.524 220.571 112.028C221.083 111.548 221.339 110.772 221.339 109.7V107.804C220.939 108.428 220.387 108.94 219.683 109.34C218.979 109.724 218.155 109.916 217.211 109.916C216.107 109.916 215.107 109.636 214.211 109.076C213.315 108.5 212.603 107.692 212.075 106.652C211.563 105.596 211.307 104.38 211.307 103.004C211.307 101.628 211.563 100.42 212.075 99.38C212.603 98.34 213.315 97.54 214.211 96.98C215.107 96.42 216.107 96.14 217.211 96.14ZM221.339 103.028C221.339 102.004 221.051 101.196 220.475 100.604C219.915 100.012 219.227 99.716 218.411 99.716C217.595 99.716 216.899 100.012 216.323 100.604C215.763 101.18 215.483 101.98 215.483 103.004C215.483 104.028 215.763 104.844 216.323 105.452C216.899 106.044 217.595 106.34 218.411 106.34C219.227 106.34 219.915 106.044 220.475 105.452C221.051 104.86 221.339 104.052 221.339 103.028Z" fill="#2D3748"/>
<path d="M241.036 102.812C241.036 103.196 241.012 103.596 240.964 104.012H231.676C231.74 104.844 232.004 105.484 232.468 105.932C232.948 106.364 233.532 106.58 234.22 106.58C235.244 106.58 235.956 106.148 236.356 105.284H240.724C240.5 106.164 240.092 106.956 239.5 107.66C238.924 108.364 238.196 108.916 237.316 109.316C236.436 109.716 235.452 109.916 234.364 109.916C233.052 109.916 231.884 109.636 230.86 109.076C229.836 108.516 229.036 107.716 228.46 106.676C227.884 105.636 227.596 104.42 227.596 103.028C227.596 101.636 227.876 100.42 228.436 99.38C229.012 98.34 229.812 97.54 230.836 96.98C231.86 96.42 233.036 96.14 234.364 96.14C235.66 96.14 236.812 96.412 237.82 96.956C238.828 97.5 239.612 98.276 240.172 99.284C240.748 100.292 241.036 101.468 241.036 102.812ZM236.836 101.732C236.836 101.028 236.596 100.468 236.116 100.052C235.636 99.636 235.036 99.428 234.316 99.428C233.628 99.428 233.044 99.628 232.564 100.028C232.1 100.428 231.812 100.996 231.7 101.732H236.836Z" fill="#2D3748"/>
</svg>
