<svg width="420" height="139" viewBox="0 0 420 139" fill="none" xmlns="http://www.w3.org/2000/svg">
<path d="M98.0905 85.3278L94.0669 76.3993H87.7632H81.4595L77.2939 85.3278H87.6922H98.0905Z" fill="#0097FF"/>
<path d="M87.629 39.6031L79.1278 58.0012L70.6266 76.3993H81.4595L84.5443 69.3647L87.629 62.3301L90.848 69.3647L94.0669 76.3993H104.797L96.2128 58.0012L87.629 39.6031Z" fill="#0097FF"/>
<path d="M71.2662 99.3969L77.2939 85.3278H72H66.7061L63.353 92.3623L60 99.3969H65.6331H71.2662Z" fill="#0097FF"/>
<path d="M104.528 99.3969H115.795L112.378 92.3623L108.962 85.3278H98.0905L104.528 99.3969Z" fill="#0097FF"/>
<path d="M138.589 73.4112H131.28L130.108 76.9004H125.114L132.2 57.1473H137.724L144.81 76.9004H139.76L138.589 73.4112ZM137.361 69.697L134.934 62.4654L132.535 69.697H137.361Z" fill="#2D3748"/>
<path d="M162.338 61.1992V76.9004H157.567V74.7619C157.084 75.4559 156.424 76.0187 155.587 76.4502C154.768 76.8629 153.857 77.0692 152.853 77.0692C151.663 77.0692 150.612 76.8066 149.7 76.2813C148.789 75.7373 148.082 74.9588 147.58 73.9459C147.078 72.9329 146.827 71.7417 146.827 70.3723V61.1992H151.57V69.7251C151.57 70.7756 151.839 71.5916 152.379 72.1731C152.918 72.7547 153.643 73.0454 154.555 73.0454C155.484 73.0454 156.219 72.7547 156.758 72.1731C157.298 71.5916 157.567 70.7756 157.567 69.7251V61.1992H162.338Z" fill="#2D3748"/>
<path d="M164.816 69.0217C164.816 67.4084 165.114 65.9921 165.709 64.7728C166.322 63.5535 167.15 62.6155 168.192 61.959C169.233 61.3024 170.395 60.9741 171.679 60.9741C172.702 60.9741 173.631 61.1898 174.468 61.6213C175.324 62.0527 175.993 62.6343 176.477 63.3659V56.0781H181.247V76.9004H176.477V74.6493C176.031 75.3997 175.389 75.9999 174.552 76.4502C173.734 76.9004 172.776 77.1255 171.679 77.1255C170.395 77.1255 169.233 76.7972 168.192 76.1406C167.15 75.4653 166.322 74.518 165.709 73.2987C165.114 72.0606 164.816 70.6349 164.816 69.0217ZM176.477 69.0498C176.477 67.8492 176.142 66.9019 175.473 66.2078C174.822 65.5138 174.022 65.1667 173.074 65.1667C172.125 65.1667 171.316 65.5138 170.646 66.2078C169.996 66.8832 169.67 67.8211 169.67 69.0217C169.67 70.2222 169.996 71.1789 170.646 71.8918C171.316 72.5858 172.125 72.9329 173.074 72.9329C174.022 72.9329 174.822 72.5858 175.473 71.8918C176.142 71.1977 176.477 70.2504 176.477 69.0498Z" fill="#2D3748"/>
<path d="M187.098 59.5672C186.261 59.5672 185.573 59.3233 185.033 58.8356C184.513 58.3291 184.252 57.7101 184.252 56.9785C184.252 56.2281 184.513 55.6091 185.033 55.1214C185.573 54.6149 186.261 54.3616 187.098 54.3616C187.916 54.3616 188.586 54.6149 189.106 55.1214C189.646 55.6091 189.915 56.2281 189.915 56.9785C189.915 57.7101 189.646 58.3291 189.106 58.8356C188.586 59.3233 187.916 59.5672 187.098 59.5672ZM189.469 61.1992V76.9004H184.699V61.1992H189.469Z" fill="#2D3748"/>
<path d="M207.6 68.7966C207.6 69.2468 207.572 69.7157 207.516 70.2035H196.72C196.795 71.1789 197.101 71.9293 197.641 72.4545C198.199 72.961 198.878 73.2143 199.677 73.2143C200.868 73.2143 201.695 72.7078 202.16 71.6948H207.237C206.977 72.7265 206.503 73.6551 205.815 74.4805C205.145 75.3059 204.299 75.9531 203.276 76.422C202.253 76.891 201.109 77.1255 199.845 77.1255C198.32 77.1255 196.962 76.7972 195.772 76.1406C194.581 75.4841 193.652 74.5461 192.982 73.3268C192.312 72.1075 191.978 70.6818 191.978 69.0498C191.978 67.4178 192.303 65.9921 192.954 64.7728C193.624 63.5535 194.554 62.6155 195.744 61.959C196.934 61.3024 198.301 60.9741 199.845 60.9741C201.351 60.9741 202.69 61.293 203.862 61.9308C205.034 62.5686 205.945 63.4784 206.596 64.6602C207.265 65.842 207.6 67.2208 207.6 68.7966ZM202.718 67.5303C202.718 66.7049 202.439 66.0484 201.881 65.5607C201.323 65.0729 200.626 64.8291 199.789 64.8291C198.989 64.8291 198.31 65.0635 197.752 65.5325C197.213 66.0015 196.878 66.6674 196.748 67.5303H202.718Z" fill="#2D3748"/>
<path d="M219.602 61.0304C221.424 61.0304 222.875 61.6307 223.954 62.8312C225.051 64.013 225.6 65.6451 225.6 67.7273V76.9004H220.857V68.3745C220.857 67.324 220.588 66.508 220.048 65.9265C219.509 65.3449 218.784 65.0542 217.872 65.0542C216.961 65.0542 216.236 65.3449 215.696 65.9265C215.157 66.508 214.887 67.324 214.887 68.3745V76.9004H210.117V61.1992H214.887V63.2815C215.371 62.5874 216.022 62.0434 216.84 61.6494C217.658 61.2367 218.579 61.0304 219.602 61.0304Z" fill="#2D3748"/>
<path d="M227.966 69.0498C227.966 67.4178 228.292 65.9921 228.943 64.7728C229.612 63.5535 230.533 62.6155 231.705 61.959C232.895 61.3024 234.252 60.9741 235.778 60.9741C237.73 60.9741 239.358 61.49 240.66 62.5217C241.98 63.5535 242.845 65.0073 243.254 66.8831H238.177C237.749 65.6826 236.921 65.0823 235.694 65.0823C234.82 65.0823 234.122 65.4293 233.602 66.1234C233.081 66.7987 232.82 67.7742 232.82 69.0498C232.82 70.3254 233.081 71.3102 233.602 72.0043C234.122 72.6796 234.82 73.0173 235.694 73.0173C236.921 73.0173 237.749 72.417 238.177 71.2164H243.254C242.845 73.0548 241.98 74.4992 240.66 75.5497C239.339 76.6002 237.712 77.1255 235.778 77.1255C234.252 77.1255 232.895 76.7972 231.705 76.1406C230.533 75.4841 229.612 74.5461 228.943 73.3268C228.292 72.1075 227.966 70.6818 227.966 69.0498Z" fill="#2D3748"/>
<path d="M260.48 68.7966C260.48 69.2468 260.452 69.7157 260.396 70.2035H249.6C249.674 71.1789 249.981 71.9293 250.52 72.4545C251.078 72.961 251.757 73.2143 252.557 73.2143C253.747 73.2143 254.575 72.7078 255.04 71.6948H260.117C259.857 72.7265 259.382 73.6551 258.694 74.4805C258.025 75.3059 257.179 75.9531 256.156 76.422C255.133 76.891 253.989 77.1255 252.724 77.1255C251.199 77.1255 249.842 76.7972 248.651 76.1406C247.461 75.4841 246.531 74.5461 245.861 73.3268C245.192 72.1075 244.857 70.6818 244.857 69.0498C244.857 67.4178 245.183 65.9921 245.834 64.7728C246.503 63.5535 247.433 62.6155 248.623 61.959C249.814 61.3024 251.181 60.9741 252.724 60.9741C254.231 60.9741 255.57 61.293 256.741 61.9308C257.913 62.5686 258.824 63.4784 259.475 64.6602C260.145 65.842 260.48 67.2208 260.48 68.7966ZM255.598 67.5303C255.598 66.7049 255.319 66.0484 254.761 65.5607C254.203 65.0729 253.505 64.8291 252.668 64.8291C251.869 64.8291 251.19 65.0635 250.632 65.5325C250.093 66.0015 249.758 66.6674 249.628 67.5303H255.598Z" fill="#2D3748"/>
<path d="M280.765 66.7706C281.899 67.0145 282.81 67.5866 283.498 68.487C284.187 69.3687 284.531 70.3817 284.531 71.526C284.531 73.1767 283.954 74.4899 282.801 75.4653C281.667 76.422 280.076 76.9004 278.031 76.9004H268.908V57.1473H277.724C279.714 57.1473 281.267 57.6069 282.383 58.5261C283.517 59.4453 284.084 60.6927 284.084 62.2685C284.084 63.4315 283.777 64.3976 283.164 65.1667C282.569 65.9358 281.769 66.4705 280.765 66.7706ZM273.679 65.1386H276.803C277.584 65.1386 278.179 64.9697 278.589 64.6321C279.016 64.2757 279.23 63.7598 279.23 63.0845C279.23 62.4092 279.016 61.8933 278.589 61.5369C278.179 61.1805 277.584 61.0023 276.803 61.0023H273.679V65.1386ZM277.194 73.0173C277.993 73.0173 278.607 72.8391 279.035 72.4827C279.481 72.1075 279.704 71.5729 279.704 70.8788C279.704 70.1847 279.472 69.6407 279.007 69.2468C278.561 68.8528 277.938 68.6559 277.138 68.6559H273.679V73.0173H277.194Z" fill="#2D3748"/>
<path d="M292.068 63.8161C292.626 62.9532 293.323 62.2779 294.16 61.7901C294.997 61.2836 295.927 61.0304 296.95 61.0304V66.1234H295.639C294.448 66.1234 293.556 66.386 292.961 66.9113C292.365 67.4178 292.068 68.3182 292.068 69.6126V76.9004H287.297V61.1992H292.068V63.8161Z" fill="#2D3748"/>
<path d="M301.629 59.5672C300.792 59.5672 300.104 59.3233 299.565 58.8356C299.044 58.3291 298.784 57.7101 298.784 56.9785C298.784 56.2281 299.044 55.6091 299.565 55.1214C300.104 54.6149 300.792 54.3616 301.629 54.3616C302.448 54.3616 303.117 54.6149 303.638 55.1214C304.177 55.6091 304.447 56.2281 304.447 56.9785C304.447 57.7101 304.177 58.3291 303.638 58.8356C303.117 59.3233 302.448 59.5672 301.629 59.5672ZM304.001 61.1992V76.9004H299.23V61.1992H304.001Z" fill="#2D3748"/>
<path d="M306.509 69.0217C306.509 67.4084 306.807 65.9921 307.402 64.7728C308.016 63.5535 308.843 62.6155 309.885 61.959C310.926 61.3024 312.089 60.9741 313.372 60.9741C314.395 60.9741 315.325 61.1898 316.162 61.6213C317.017 62.0527 317.687 62.6343 318.17 63.3659V56.0781H322.941V76.9004H318.17V74.6493C317.724 75.3997 317.082 75.9999 316.245 76.4502C315.427 76.9004 314.469 77.1255 313.372 77.1255C312.089 77.1255 310.926 76.7972 309.885 76.1406C308.843 75.4653 308.016 74.518 307.402 73.2987C306.807 72.0606 306.509 70.6349 306.509 69.0217ZM318.17 69.0498C318.17 67.8492 317.835 66.9019 317.166 66.2078C316.515 65.5138 315.715 65.1667 314.767 65.1667C313.818 65.1667 313.009 65.5138 312.34 66.2078C311.689 66.8832 311.363 67.8211 311.363 69.0217C311.363 70.2222 311.689 71.1789 312.34 71.8918C313.009 72.5858 313.818 72.9329 314.767 72.9329C315.715 72.9329 316.515 72.5858 317.166 71.8918C317.835 71.1977 318.17 70.2504 318.17 69.0498Z" fill="#2D3748"/>
<path d="M332.306 60.9741C333.403 60.9741 334.361 61.1992 335.179 61.6494C336.016 62.0996 336.658 62.6905 337.104 63.4221V61.1992H341.875V76.8722C341.875 78.3167 341.587 79.6204 341.01 80.7835C340.452 81.9653 339.587 82.9032 338.416 83.5973C337.262 84.2914 335.821 84.6384 334.091 84.6384C331.785 84.6384 329.916 84.085 328.484 82.9782C327.052 81.8902 326.234 80.4083 326.029 78.5324H330.744C330.893 79.1327 331.246 79.6016 331.804 79.9393C332.362 80.2957 333.05 80.4739 333.868 80.4739C334.854 80.4739 335.635 80.1832 336.212 79.6016C336.807 79.0389 337.104 78.1291 337.104 76.8722V74.6493C336.639 75.3809 335.998 75.9812 335.179 76.4502C334.361 76.9004 333.403 77.1255 332.306 77.1255C331.023 77.1255 329.86 76.7972 328.819 76.1406C327.777 75.4653 326.95 74.518 326.336 73.2987C325.741 72.0606 325.443 70.6349 325.443 69.0217C325.443 67.4084 325.741 65.9921 326.336 64.7728C326.95 63.5535 327.777 62.6155 328.819 61.959C329.86 61.3024 331.023 60.9741 332.306 60.9741ZM337.104 69.0498C337.104 67.8492 336.77 66.9019 336.1 66.2078C335.449 65.5138 334.649 65.1667 333.701 65.1667C332.752 65.1667 331.943 65.5138 331.274 66.2078C330.623 66.8832 330.297 67.8211 330.297 69.0217C330.297 70.2222 330.623 71.1789 331.274 71.8918C331.943 72.5858 332.752 72.9329 333.701 72.9329C334.649 72.9329 335.449 72.5858 336.1 71.8918C336.77 71.1977 337.104 70.2504 337.104 69.0498Z" fill="#2D3748"/>
<path d="M360 68.7966C360 69.2468 359.972 69.7157 359.916 70.2035H349.12C349.194 71.1789 349.501 71.9293 350.041 72.4545C350.599 72.961 351.277 73.2143 352.077 73.2143C353.267 73.2143 354.095 72.7078 354.56 71.6948H359.637C359.377 72.7265 358.903 73.6551 358.215 74.4805C357.545 75.3059 356.699 75.9531 355.676 76.422C354.653 76.891 353.509 77.1255 352.245 77.1255C350.719 77.1255 349.362 76.7972 348.172 76.1406C346.981 75.4841 346.051 74.5461 345.382 73.3268C344.712 72.1075 344.378 70.6818 344.378 69.0498C344.378 67.4178 344.703 65.9921 345.354 64.7728C346.023 63.5535 346.953 62.6155 348.144 61.959C349.334 61.3024 350.701 60.9741 352.245 60.9741C353.751 60.9741 355.09 61.293 356.262 61.9308C357.433 62.5686 358.345 63.4784 358.996 64.6602C359.665 65.842 360 67.2208 360 68.7966ZM355.118 67.5303C355.118 66.7049 354.839 66.0484 354.281 65.5607C353.723 65.0729 353.026 64.8291 352.189 64.8291C351.389 64.8291 350.71 65.0635 350.152 65.5325C349.613 66.0015 349.278 66.6674 349.148 67.5303H355.118Z" fill="#2D3748"/>
</svg>
